<svg width="40" height="40" viewBox="0 0 40 40" fill="none" xmlns="http://www.w3.org/2000/svg">
<rect width="40" height="40" rx="20" fill="#58A06A"/>
<path d="M15.3493 7C15.8626 7.58853 16.2008 8.29824 16.395 9.06469C16.7104 10.3097 16.6903 11.7046 16.5842 13.1272C16.3718 15.9725 15.8427 18.9671 16.4601 20.8255C17.0397 22.5698 17.9689 23.6059 18.9999 24.1152C19.4434 24.3344 19.9103 24.4557 20.3825 24.4871C21.5113 20.9186 21.2705 16.3645 19.4132 13.2865C21.8722 15.9311 23.0337 19.9245 22.2834 24.1101L21.8368 24.3036C21.9763 24.2588 22.1136 24.2067 22.2484 24.1478C24.3734 23.2228 26.1123 20.5152 25.3889 16.5455C25.0564 14.7216 23.9157 12.1501 22.0068 10.1579C20.3554 8.43454 18.1505 7.13071 15.3492 7.00011L15.3493 7ZM29.791 17.0629C29.7483 17.7263 29.5552 18.3529 29.254 18.922C28.7275 19.9166 27.9089 20.7728 27.0226 21.5863C25.2499 23.213 23.2054 24.7201 22.5312 26.2587C21.8927 27.7162 21.876 28.9591 22.2166 29.9477C22.3622 30.3708 22.58 30.7607 22.8587 31.0974C25.5901 29.6287 28.0324 26.6612 28.6468 23.5293C28.6506 26.7997 27.089 30.0368 24.2413 32.1323C26.0621 32.9298 28.6294 32.4083 30.4316 29.5142C31.2666 28.1733 32.0366 25.8243 31.9987 23.3254C31.9664 21.2042 31.3749 18.9813 29.7911 17.0631L29.791 17.0629ZM8.18316 21.0912C7.70088 23.6066 8.21917 25.8521 9.17488 27.7066C10.3006 29.891 12.0576 31.5104 13.4024 32.2214C16.3048 33.7559 18.7685 32.8227 19.9757 31.1505C16.5382 30.8709 13.685 28.9095 12.1723 26.0754C14.1568 28.4565 17.6475 29.71 20.6941 29.5091C20.7798 29.0674 20.7879 28.6124 20.718 28.1675C20.5545 27.1277 19.9617 26.0595 18.7329 25.1416C17.4358 24.1728 14.9672 23.9705 12.6777 23.5173C11.533 23.2909 10.4274 22.9915 9.51033 22.414C8.98533 22.0833 8.52807 21.6431 8.18326 21.0912L8.18316 21.0912Z" fill="#FFFCFC"/>
</svg>
